<svg width="20" height="19" viewBox="0 0 20 19" fill="none" xmlns="http://www.w3.org/2000/svg">
<path d="M13.0401 15.2268L0.729246 6.73479C-0.518306 5.87427 -0.0942208 4.08253 1.46144 3.66119L14.5456 0.109989C14.8228 0.00997888 15.1198 -0.0224863 15.4121 0.0152902C15.7043 0.0530667 15.9833 0.159994 16.2259 0.327199C16.4685 0.494404 16.6678 0.717062 16.8071 0.976694C16.9464 1.23633 17.0218 1.52545 17.027 1.82005L16.2516 13.8626C16.1596 15.292 14.2876 16.0873 13.0401 15.2268Z" fill="#586E84"/>
<path d="M9.13547 17.323L1.88278 3.1395C1.71699 2.81502 1.64403 2.45106 1.67196 2.08775C1.69988 1.72445 1.8276 1.37591 2.04102 1.08058C2.25445 0.785248 2.54529 0.554595 2.88148 0.414057C3.21766 0.273518 3.58613 0.228557 3.94625 0.284134L17.3873 2.35858C17.6967 2.40634 17.9904 2.52688 18.2442 2.71027C18.498 2.89367 18.7046 3.13469 18.8472 3.41351C18.9896 3.69232 19.0639 4.00098 19.0639 4.3141C19.0638 4.62722 18.9894 4.93586 18.8469 5.21463L12.6551 17.3237C12.4888 17.6472 12.2366 17.9187 11.9261 18.1082C11.6155 18.2977 11.2588 18.3979 10.8951 18.3978C10.5313 18.3978 10.1746 18.2974 9.86417 18.1078C9.55372 17.9182 9.30161 17.6466 9.13547 17.323Z" fill="#586E84"/>
<path d="M13.5564 5.0173L10.9756 4.59937L7.80707 5.50208L9.0718 8.09816L12.0334 10.2425C12.0988 10.2893 12.1706 10.3251 12.2465 10.3487L13.3714 8.04048L13.5564 5.0173Z" fill="white"/>
</svg>
