<svg width="19" height="19" viewBox="0 0 19 19" fill="none" xmlns="http://www.w3.org/2000/svg">
<path fill-rule="evenodd" clip-rule="evenodd" d="M9.19894 18.3979C14.2794 18.3979 18.3979 14.2794 18.3979 9.19892C18.3979 4.11851 14.2794 0 9.19894 0C4.11849 0 0 4.11851 0 9.19892C0 14.2794 4.11849 18.3979 9.19894 18.3979ZM12.0687 4.28525C12.2084 3.78906 11.7269 3.49565 11.2871 3.80896L5.14824 8.18225C4.67132 8.52202 4.74634 9.19892 5.26092 9.19892H6.87745V9.18641H10.028L7.4609 10.0922L6.3292 14.1126C6.18951 14.6088 6.67098 14.9022 7.11078 14.5889L13.2496 10.2156C13.7266 9.87587 13.6515 9.19892 13.137 9.19892H10.6855L12.0687 4.28525Z" fill="#586E84"/>
</svg>
