<svg width="47" height="49" viewBox="0 0 47 49" fill="none" xmlns="http://www.w3.org/2000/svg">
<path d="M3.25488 11.6755C5.12118 10.4559 7.60622 10.4352 9.49902 11.5984L9.68066 11.7146C11.6067 13.0023 12.4887 15.0795 12.3438 17.1003C12.2151 18.8797 12.7452 20.6737 14.041 21.9695L14.7412 22.6697C17.057 24.9853 20.8103 24.9854 23.126 22.6697L23.8301 21.9656C24.9964 20.7992 25.6188 19.2017 25.5557 17.5632L25.5342 17.2351C25.3726 15.5375 25.9384 13.7881 27.2363 12.4919C29.8428 9.88367 34.2777 10.2143 36.4258 13.491C37.6863 15.4135 37.6724 17.9988 36.3965 19.9138C35.1085 21.8459 33.0272 22.7316 31.0049 22.5847C29.2274 22.4561 27.4334 22.9862 26.1377 24.282L25.4375 24.9822C23.1222 27.2978 23.1222 31.0503 25.4375 33.366L26.1377 34.0671C27.3527 35.2821 29.0072 35.8231 30.6738 35.78L31.0068 35.7634C32.999 35.6186 35.0453 36.4767 36.3369 38.3474L36.3916 38.4285C37.671 40.3412 37.6869 42.9274 36.4297 44.8542C34.2855 48.1377 29.8448 48.4706 27.2344 45.8601H27.2354C25.9385 44.5615 25.3707 42.814 25.5322 41.1169C25.6977 39.3653 25.0722 37.6306 23.8281 36.3865L23.124 35.6824C20.8084 33.3667 17.055 33.3669 14.7393 35.6824L14.0352 36.3865C12.791 37.6306 12.1656 39.3652 12.3311 41.1169C12.4926 42.8143 11.9262 44.5618 10.6279 45.8601C8.01766 48.4722 3.57694 48.138 1.43262 44.8542C0.173783 42.9278 0.192088 40.3415 1.47168 38.4285L1.4707 38.4275C2.76082 36.5011 4.83752 35.6186 6.85742 35.7654C8.6367 35.894 10.4308 35.3648 11.7266 34.0691L12.4268 33.3679C14.67 31.1244 14.7401 27.5324 12.6367 25.2048L12.4268 24.9841L11.7227 24.2781L11.4834 24.0515C10.3428 23.0312 8.8495 22.4926 7.32031 22.5515L6.99219 22.574C5.29676 22.7355 3.54732 22.1691 2.24902 20.8708C-0.279898 18.3419 -0.0464292 14.0958 2.95605 11.8835L3.25488 11.6755Z" stroke="url(#paint0_linear_24_4045)"/>
<defs>
<linearGradient id="paint0_linear_24_4045" x1="9.0592" y1="-29.6748" x2="50.868" y2="-17.2656" gradientUnits="userSpaceOnUse">
<stop stop-color="white"/>
<stop offset="1" stop-color="#8B8B8B"/>
</linearGradient>
</defs>
</svg>
